<svg width="15" height="15" viewBox="0 0 15 15" fill="none" xmlns="http://www.w3.org/2000/svg">
<path fill-rule="evenodd" clip-rule="evenodd" d="M7.63689 4.35573C7.68043 4.31208 7.73216 4.27744 7.78911 4.25381C7.84606 4.23018 7.90711 4.21802 7.96876 4.21802C8.03042 4.21802 8.09147 4.23018 8.14842 4.25381C8.20537 4.27744 8.2571 4.31208 8.30064 4.35573L11.1131 7.16823C11.1568 7.21177 11.1914 7.2635 11.2151 7.32045C11.2387 7.3774 11.2509 7.43845 11.2509 7.50011C11.2509 7.56176 11.2387 7.62281 11.2151 7.67976C11.1914 7.73671 11.1568 7.78844 11.1131 7.83198L8.30064 10.6445C8.21262 10.7325 8.09324 10.7819 7.96876 10.7819C7.84429 10.7819 7.72491 10.7325 7.63689 10.6445C7.54887 10.5565 7.49942 10.4371 7.49942 10.3126C7.49942 10.1881 7.54887 10.0687 7.63689 9.98073L10.1185 7.50011L7.63689 5.01948C7.59324 4.97594 7.5586 4.92421 7.53497 4.86726C7.51134 4.81031 7.49918 4.74926 7.49918 4.68761C7.49918 4.62595 7.51134 4.5649 7.53497 4.50795C7.5586 4.451 7.59324 4.39927 7.63689 4.35573Z" fill="#EEA736"/>
<path fill-rule="evenodd" clip-rule="evenodd" d="M3.75 7.5C3.75 7.37568 3.79939 7.25645 3.88729 7.16854C3.9752 7.08064 4.09443 7.03125 4.21875 7.03125H10.3125C10.4368 7.03125 10.556 7.08064 10.644 7.16854C10.7319 7.25645 10.7812 7.37568 10.7812 7.5C10.7812 7.62432 10.7319 7.74355 10.644 7.83146C10.556 7.91936 10.4368 7.96875 10.3125 7.96875H4.21875C4.09443 7.96875 3.9752 7.91936 3.88729 7.83146C3.79939 7.74355 3.75 7.62432 3.75 7.5Z" fill="#EEA736"/>
</svg>
