<svg width="30" height="30" viewBox="0 0 30 30" fill="none" xmlns="http://www.w3.org/2000/svg">
<path fill-rule="evenodd" clip-rule="evenodd" d="M15.2735 8.71122C15.3606 8.62391 15.464 8.55464 15.5779 8.50738C15.6918 8.46012 15.8139 8.43579 15.9372 8.43579C16.0605 8.43579 16.1826 8.46012 16.2965 8.50738C16.4104 8.55464 16.5139 8.62391 16.601 8.71122L22.226 14.3362C22.3133 14.4233 22.3825 14.5268 22.4298 14.6407C22.4771 14.7546 22.5014 14.8767 22.5014 15C22.5014 15.1233 22.4771 15.2454 22.4298 15.3593C22.3825 15.4732 22.3133 15.5766 22.226 15.6637L16.601 21.2887C16.4249 21.4648 16.1862 21.5637 15.9372 21.5637C15.6883 21.5637 15.4495 21.4648 15.2735 21.2887C15.0974 21.1127 14.9985 20.8739 14.9985 20.625C14.9985 20.376 15.0974 20.1373 15.2735 19.9612L20.2366 15L15.2735 10.0387C15.1862 9.95163 15.1169 9.84818 15.0696 9.73428C15.0224 9.62038 14.998 9.49828 14.998 9.37497C14.998 9.25165 15.0224 9.12955 15.0696 9.01565C15.1169 8.90176 15.1862 8.7983 15.2735 8.71122Z" fill="#2D2424"/>
<path fill-rule="evenodd" clip-rule="evenodd" d="M7.5 15C7.5 14.7514 7.59877 14.5129 7.77459 14.3371C7.9504 14.1613 8.18886 14.0625 8.4375 14.0625H20.625C20.8736 14.0625 21.1121 14.1613 21.2879 14.3371C21.4637 14.5129 21.5625 14.7514 21.5625 15C21.5625 15.2486 21.4637 15.4871 21.2879 15.6629C21.1121 15.8387 20.8736 15.9375 20.625 15.9375H8.4375C8.18886 15.9375 7.9504 15.8387 7.77459 15.6629C7.59877 15.4871 7.5 15.2486 7.5 15Z" fill="#2D2424"/>
</svg>
