<svg width="15" height="15" viewBox="0 0 15 15" fill="none" xmlns="http://www.w3.org/2000/svg">
<path fill-rule="evenodd" clip-rule="evenodd" d="M7.63686 4.35567C7.6804 4.31202 7.73213 4.27738 7.78908 4.25375C7.84603 4.23012 7.90708 4.21796 7.96873 4.21796C8.03039 4.21796 8.09144 4.23012 8.14839 4.25375C8.20534 4.27738 8.25707 4.31202 8.30061 4.35567L11.1131 7.16817C11.1568 7.21171 11.1914 7.26344 11.215 7.32039C11.2387 7.37734 11.2508 7.43839 11.2508 7.50004C11.2508 7.5617 11.2387 7.62275 11.215 7.6797C11.1914 7.73665 11.1568 7.78838 11.1131 7.83192L8.30061 10.6444C8.21259 10.7324 8.09321 10.7819 7.96873 10.7819C7.84426 10.7819 7.72488 10.7324 7.63686 10.6444C7.54884 10.5564 7.49939 10.437 7.49939 10.3125C7.49939 10.1881 7.54884 10.0687 7.63686 9.98067L10.1184 7.50004L7.63686 5.01942C7.59321 4.97588 7.55857 4.92415 7.53494 4.8672C7.51131 4.81025 7.49915 4.7492 7.49915 4.68754C7.49915 4.62589 7.51131 4.56484 7.53494 4.50789C7.55857 4.45094 7.59321 4.39921 7.63686 4.35567Z" fill="white"/>
<path fill-rule="evenodd" clip-rule="evenodd" d="M3.75 7.5C3.75 7.37568 3.79939 7.25645 3.88729 7.16854C3.9752 7.08064 4.09443 7.03125 4.21875 7.03125H10.3125C10.4368 7.03125 10.556 7.08064 10.644 7.16854C10.7319 7.25645 10.7812 7.37568 10.7812 7.5C10.7812 7.62432 10.7319 7.74355 10.644 7.83146C10.556 7.91936 10.4368 7.96875 10.3125 7.96875H4.21875C4.09443 7.96875 3.9752 7.91936 3.88729 7.83146C3.79939 7.74355 3.75 7.62432 3.75 7.5Z" fill="white"/>
</svg>
