<svg width="40" height="40" viewBox="0 0 40 40" fill="none" xmlns="http://www.w3.org/2000/svg">
<path fill-rule="evenodd" clip-rule="evenodd" d="M28.385 20.885C28.2688 21.0014 28.1309 21.0937 27.979 21.1567C27.8272 21.2198 27.6644 21.2522 27.5 21.2522C27.3355 21.2522 27.1727 21.2198 27.0209 21.1567C26.869 21.0937 26.7311 21.0014 26.615 20.885L20 14.2675L13.385 20.885C13.1502 21.1197 12.8319 21.2515 12.5 21.2515C12.168 21.2515 11.8497 21.1197 11.615 20.885C11.3802 20.6502 11.2484 20.3319 11.2484 20C11.2484 19.668 11.3802 19.3497 11.615 19.115L19.115 11.615C19.2311 11.4986 19.369 11.4062 19.5209 11.3432C19.6727 11.2802 19.8355 11.2477 20 11.2477C20.1644 11.2477 20.3272 11.2802 20.479 11.3432C20.6309 11.4062 20.7689 11.4986 20.885 11.615L28.385 19.115C28.5014 19.2311 28.5937 19.369 28.6567 19.5209C28.7198 19.6727 28.7522 19.8355 28.7522 20C28.7522 20.1644 28.7198 20.3272 28.6567 20.479C28.5937 20.6309 28.5014 20.7688 28.385 20.885Z" fill="#EEA736"/>
<path fill-rule="evenodd" clip-rule="evenodd" d="M20 28.75C19.6685 28.75 19.3505 28.6183 19.1161 28.3839C18.8817 28.1495 18.75 27.8315 18.75 27.5L18.75 15C18.75 14.6685 18.8817 14.3505 19.1161 14.1161C19.3505 13.8817 19.6685 13.75 20 13.75C20.3315 13.75 20.6495 13.8817 20.8839 14.1161C21.1183 14.3505 21.25 14.6685 21.25 15L21.25 27.5C21.25 27.8315 21.1183 28.1495 20.8839 28.3839C20.6495 28.6183 20.3315 28.75 20 28.75Z" fill="#EEA736"/>
</svg>
