<svg width="30" height="30" viewBox="0 0 30 30" fill="none" xmlns="http://www.w3.org/2000/svg">
<path fill-rule="evenodd" clip-rule="evenodd" d="M14.7265 8.71122C14.6394 8.62391 14.536 8.55464 14.4221 8.50738C14.3082 8.46012 14.1861 8.43579 14.0628 8.43579C13.9395 8.43579 13.8174 8.46012 13.7035 8.50738C13.5896 8.55464 13.4861 8.62391 13.399 8.71122L7.77403 14.3362C7.68672 14.4233 7.61746 14.5268 7.57019 14.6407C7.52293 14.7546 7.4986 14.8767 7.4986 15C7.4986 15.1233 7.52293 15.2454 7.57019 15.3593C7.61746 15.4732 7.68672 15.5766 7.77403 15.6637L13.399 21.2887C13.5751 21.4648 13.8138 21.5637 14.0628 21.5637C14.3117 21.5637 14.5505 21.4648 14.7265 21.2887C14.9026 21.1127 15.0015 20.8739 15.0015 20.625C15.0015 20.376 14.9026 20.1373 14.7265 19.9612L9.7634 15L14.7265 10.0387C14.8138 9.95163 14.8831 9.84818 14.9304 9.73428C14.9776 9.62038 15.002 9.49828 15.002 9.37497C15.002 9.25165 14.9776 9.12955 14.9304 9.01565C14.8831 8.90176 14.8138 8.7983 14.7265 8.71122Z" fill="#2D2424"/>
<path fill-rule="evenodd" clip-rule="evenodd" d="M22.5 15C22.5 14.7514 22.4012 14.5129 22.2254 14.3371C22.0496 14.1613 21.8111 14.0625 21.5625 14.0625H9.375C9.12636 14.0625 8.8879 14.1613 8.71209 14.3371C8.53627 14.5129 8.4375 14.7514 8.4375 15C8.4375 15.2486 8.53627 15.4871 8.71209 15.6629C8.8879 15.8387 9.12636 15.9375 9.375 15.9375H21.5625C21.8111 15.9375 22.0496 15.8387 22.2254 15.6629C22.4012 15.4871 22.5 15.2486 22.5 15Z" fill="#2D2424"/>
</svg>
