<svg width="25" height="25" viewBox="0 0 25 25" fill="none" xmlns="http://www.w3.org/2000/svg">
<path fill-rule="evenodd" clip-rule="evenodd" d="M17.1408 7.76564C17.3594 7.54887 17.6546 7.42688 17.9625 7.42603C18.2704 7.42518 18.5663 7.54554 18.7862 7.7611C19.006 7.97665 19.1322 8.27007 19.1375 8.57793C19.1427 8.88579 19.0266 9.18334 18.8142 9.40626L12.5767 17.2031C12.4695 17.3186 12.3401 17.4113 12.1963 17.4756C12.0525 17.5399 11.8971 17.5746 11.7396 17.5775C11.5821 17.5804 11.4256 17.5515 11.2795 17.4926C11.1333 17.4336 11.0006 17.3458 10.8892 17.2344L6.7564 13.1C6.64127 12.9927 6.54892 12.8634 6.48487 12.7196C6.42082 12.5759 6.38638 12.4207 6.38361 12.2633C6.38083 12.106 6.40977 11.9497 6.46871 11.8038C6.52765 11.6578 6.61538 11.5253 6.72666 11.414C6.83794 11.3027 6.97049 11.215 7.11641 11.1561C7.26233 11.0971 7.41862 11.0682 7.57597 11.071C7.73332 11.0737 7.8885 11.1082 8.03225 11.1722C8.17599 11.2363 8.30537 11.3286 8.41265 11.4438L11.6845 14.7141L17.1111 7.80001C17.1208 7.78791 17.1312 7.77643 17.1423 7.76564H17.1408Z" fill="#EEA736"/>
</svg>
