<svg width="17" height="17" viewBox="0 0 17 17" fill="none" xmlns="http://www.w3.org/2000/svg">
<path fill-rule="evenodd" clip-rule="evenodd" d="M0.053125 3.77719C0.160244 3.30782 0.423571 2.88874 0.799979 2.58858C1.17639 2.28842 1.64356 2.12497 2.125 2.125H14.875C15.3564 2.12497 15.8236 2.28842 16.2 2.58858C16.5764 2.88874 16.8398 3.30782 16.9469 3.77719L8.5 8.93987L0.053125 3.77719ZM0 4.99056V12.5386L6.16569 8.75819L0 4.99056ZM7.18356 9.38188L0.202937 13.6606C0.375409 14.0242 0.647622 14.3315 0.987893 14.5465C1.32816 14.7614 1.7225 14.8754 2.125 14.875H14.875C15.2774 14.8751 15.6716 14.7609 16.0117 14.5457C16.3518 14.3305 16.6238 14.0232 16.796 13.6595L9.81538 9.38081L8.5 10.1851L7.18356 9.38081V9.38188ZM10.8343 8.75925L17 12.5386V4.99056L10.8343 8.75819V8.75925Z" fill="#EEA736"/>
</svg>
