<svg width="150" height="72" viewBox="0 0 150 72" fill="none" xmlns="http://www.w3.org/2000/svg">
<rect x="0.5" y="0.5" width="149" height="71" stroke="white"/>
<path d="M33.3633 48.2402H45.4922V51H29.9707V25.4062H33.3633V48.2402ZM67.8691 39.0293C67.8691 41.5371 67.4473 43.7285 66.6035 45.6035C65.7598 47.4668 64.5645 48.8906 63.0176 49.875C61.4707 50.8594 59.666 51.3516 57.6035 51.3516C55.5879 51.3516 53.8008 50.8594 52.2422 49.875C50.6836 48.8789 49.4707 47.4668 48.6035 45.6387C47.748 43.7988 47.3086 41.6719 47.2852 39.2578V37.4121C47.2852 34.9512 47.7129 32.7773 48.5684 30.8906C49.4238 29.0039 50.6309 27.5625 52.1895 26.5664C53.7598 25.5586 55.5527 25.0547 57.5684 25.0547C59.6191 25.0547 61.4238 25.5527 62.9824 26.5488C64.5527 27.5332 65.7598 28.9688 66.6035 30.8555C67.4473 32.7305 67.8691 34.916 67.8691 37.4121V39.0293ZM64.5117 37.377C64.5117 34.3418 63.9023 32.0156 62.6836 30.3984C61.4648 28.7695 59.7598 27.9551 57.5684 27.9551C55.4355 27.9551 53.7539 28.7695 52.5234 30.3984C51.3047 32.0156 50.6777 34.2656 50.6426 37.1484V39.0293C50.6426 41.9707 51.2578 44.2852 52.4883 45.9727C53.7305 47.6484 55.4355 48.4863 57.6035 48.4863C59.7832 48.4863 61.4707 47.6953 62.666 46.1133C63.8613 44.5195 64.4766 42.2402 64.5117 39.2754V37.377ZM91.8281 47.6426C90.9609 48.8848 89.748 49.8164 88.1895 50.4375C86.6426 51.0469 84.8379 51.3516 82.7754 51.3516C80.6895 51.3516 78.8379 50.8652 77.2207 49.8926C75.6035 48.9082 74.3496 47.5137 73.459 45.709C72.5801 43.9043 72.1289 41.8125 72.1055 39.4336V37.2012C72.1055 33.3457 73.002 30.3574 74.7949 28.2363C76.5996 26.1152 79.1309 25.0547 82.3887 25.0547C85.0605 25.0547 87.2109 25.7402 88.8398 27.1113C90.4688 28.4707 91.4648 30.4043 91.8281 32.9121H88.4531C87.8203 29.5254 85.8047 27.832 82.4062 27.832C80.1445 27.832 78.4277 28.6289 77.2559 30.2227C76.0957 31.8047 75.5098 34.1016 75.498 37.1133V39.2051C75.498 42.0762 76.1543 44.3613 77.4668 46.0605C78.7793 47.748 80.5547 48.5918 82.793 48.5918C84.0586 48.5918 85.166 48.4512 86.1152 48.1699C87.0645 47.8887 87.8496 47.4141 88.4707 46.7461V40.998H82.5469V38.2559H91.8281V47.6426ZM117.158 39.0293C117.158 41.5371 116.736 43.7285 115.893 45.6035C115.049 47.4668 113.854 48.8906 112.307 49.875C110.76 50.8594 108.955 51.3516 106.893 51.3516C104.877 51.3516 103.09 50.8594 101.531 49.875C99.9727 48.8789 98.7598 47.4668 97.8926 45.6387C97.0371 43.7988 96.5977 41.6719 96.5742 39.2578V37.4121C96.5742 34.9512 97.002 32.7773 97.8574 30.8906C98.7129 29.0039 99.9199 27.5625 101.479 26.5664C103.049 25.5586 104.842 25.0547 106.857 25.0547C108.908 25.0547 110.713 25.5527 112.271 26.5488C113.842 27.5332 115.049 28.9688 115.893 30.8555C116.736 32.7305 117.158 34.916 117.158 37.4121V39.0293ZM113.801 37.377C113.801 34.3418 113.191 32.0156 111.973 30.3984C110.754 28.7695 109.049 27.9551 106.857 27.9551C104.725 27.9551 103.043 28.7695 101.812 30.3984C100.594 32.0156 99.9668 34.2656 99.9316 37.1484V39.0293C99.9316 41.9707 100.547 44.2852 101.777 45.9727C103.02 47.6484 104.725 48.4863 106.893 48.4863C109.072 48.4863 110.76 47.6953 111.955 46.1133C113.15 44.5195 113.766 42.2402 113.801 39.2754V37.377Z" fill="white"/>
</svg>
