<svg width="17" height="17" viewBox="0 0 17 17" fill="none" xmlns="http://www.w3.org/2000/svg">
<path d="M13.5842 2.10595C12.2262 0.747902 10.4206 0 8.50002 0C6.57948 0 4.77383 0.747902 3.41582 2.10595C2.05778 3.46402 1.30988 5.26961 1.30988 7.19012C1.30988 11.0753 4.98341 14.3068 6.95697 16.0429C7.23123 16.2841 7.46806 16.4925 7.65676 16.6687C7.89316 16.8895 8.19661 17 8.49999 17C8.80343 17 9.10681 16.8895 9.34325 16.6687C9.53194 16.4924 9.76878 16.2841 10.043 16.0429C12.0166 14.3068 15.6901 11.0753 15.6901 7.19012C15.6901 5.26961 14.9422 3.46402 13.5842 2.10595ZM9.38528 15.2952C9.10501 15.5417 8.863 15.7546 8.66344 15.941C8.57177 16.0266 8.4282 16.0266 8.33649 15.941C8.13698 15.7546 7.89492 15.5417 7.61466 15.2951C5.75926 13.663 2.30564 10.625 2.30564 7.19015C2.30564 3.77461 5.08438 0.995863 8.49995 0.995863C11.9155 0.995863 14.6942 3.77461 14.6942 7.19015C14.6943 10.625 11.2407 13.663 9.38528 15.2952Z" fill="#EEA736"/>
<path d="M8.50003 3.75C6.75285 3.75 5.33142 5.1714 5.33142 6.91859C5.33142 8.66578 6.75285 10.0872 8.50003 10.0872C10.2472 10.0872 11.6686 8.66578 11.6686 6.91859C11.6686 5.1714 10.2472 3.75 8.50003 3.75ZM8.50003 9.09131C7.30196 9.09131 6.32725 8.1166 6.32725 6.91856C6.32725 5.72051 7.30196 4.7458 8.50003 4.7458C9.69811 4.7458 10.6728 5.72051 10.6728 6.91856C10.6728 8.1166 9.69811 9.09131 8.50003 9.09131Z" fill="#EEA736"/>
</svg>
