<svg width="101" height="56" viewBox="0 0 101 56" fill="none" xmlns="http://www.w3.org/2000/svg">
<path d="M62.9313 12.3318L51.1563 0.526428C50.4474 -0.184265 49.2923 -0.184265 48.5834 0.526428L41.1666 7.96239L39.9458 9.18636L36.8084 12.3318C36.0995 13.0425 36.0995 14.2007 36.8084 14.9114L48.5834 26.7168C49.2923 27.4275 50.4474 27.4275 51.1563 26.7168L62.9313 14.9114C63.6402 14.2007 63.6402 13.0557 62.9313 12.3318ZM55.8164 8.56779V11.5159H52.876V8.56779H55.8164Z" fill="#EEA736"/>
<path d="M43.9364 8.56778H52.4559V11.5027H51.3926V21.992H48.334V11.5027H43.9364V8.56778Z" fill="#292929"/>
<path d="M41.8886 20.3206C38.1343 23.874 38.3443 27.0327 44.8947 25.9271C50.7494 24.7821 58.2713 21.4392 65.2418 17.7805C57.1817 20.6891 49.5286 23.137 44.3565 23.5187C41.1535 23.6634 40.3659 22.5316 41.8886 20.3206Z" fill="#292929"/>
<path d="M59.1245 8.13349C62.8789 4.58002 62.6688 1.42139 56.1184 2.52691C50.2637 3.67192 42.7419 7.01481 35.7714 10.6736C43.8314 7.76498 51.4845 5.31704 56.6566 4.93537C59.8596 4.7906 60.6341 5.92244 59.1245 8.13349Z" fill="#292929"/>
<path d="M4.0694 51.6963V40.0357L0 40.062V36.9955H11.2499L11.2762 40.062L7.20678 40.0357V51.6963H4.0694Z" fill="white"/>
<path d="M12.8383 41.1939H15.7263V46.5636C15.7263 48.3008 16.422 48.9589 17.6953 48.9589C18.9293 48.9589 19.8088 48.0376 19.8088 46.5636V41.1939H22.8937V51.6963H20.0057C20.0057 51.6963 19.9663 50.0644 19.9663 50.0381C19.2706 50.9988 17.9185 51.9069 16.3826 51.9069C13.8229 51.9069 12.8383 50.3144 12.8383 47.1821V41.1939Z" fill="white"/>
<path d="M32.4764 44.0498C31.7807 43.9182 31.1375 43.8129 30.5074 43.8129C29.0634 43.8129 28.5121 45.1553 28.5121 46.9452V51.6963H25.4272C25.4272 50.6435 25.4272 42.2468 25.4272 41.1939H28.3151L28.3545 42.8785H28.3808C28.6696 41.9177 29.4966 40.9833 30.783 40.9833C31.3475 40.9833 31.8332 41.0228 32.5815 41.1939L32.4764 44.0498Z" fill="white"/>
<path d="M37.5042 51.6963V41.1939H34.4193V51.6963H37.5042Z" fill="white"/>
<path d="M40.1689 41.1939H43.0569C43.0569 41.1939 43.0963 42.8258 43.0963 42.8522C43.792 41.8914 45.1047 40.9833 46.6931 40.9833C49.1479 40.9833 50.395 42.5626 50.395 45.7081V51.6963H47.3101V46.3267C47.3101 44.5894 46.5619 43.9314 45.341 43.9314C44.0677 43.9314 43.2276 44.8526 43.2276 46.3267V51.6963H40.1689V41.1939Z" fill="white"/>
<path d="M53.2173 52.6702C54.3331 53.0914 55.4752 53.4204 56.8141 53.4204C58.7832 53.4204 59.899 52.6176 59.899 51.1041V50.117C59.2033 50.9725 58.2056 51.749 56.7091 51.749C53.9393 51.749 52.0753 49.3932 52.0753 46.3925C52.0753 43.3917 53.9393 40.9701 56.7091 40.9701C58.2975 40.9701 59.3214 41.7466 60.0434 42.7074C60.0434 42.7074 60.0828 41.3781 60.0828 41.1807H62.9708V50.8014C62.9708 54.1574 60.5029 55.9868 57.0373 55.9868C55.3439 55.9868 54.0049 55.7104 52.6791 55.2498L53.2173 52.6702ZM57.5755 43.7208C56.1447 43.7208 55.042 44.9184 55.042 46.3925C55.042 47.906 56.1578 49.0641 57.5755 49.0641C58.9932 49.0641 60.109 47.906 60.109 46.3925C60.109 44.8789 58.9932 43.7208 57.5755 43.7208Z" fill="white"/>
<path d="M65.7406 48.6562C66.6857 49.0773 67.9197 49.4721 69.1142 49.4721C69.81 49.4721 70.2432 49.1826 70.2432 48.6693C70.2432 47.1821 65.0711 47.9191 65.0711 44.1156C65.0711 42.2862 66.7514 40.9833 68.9042 40.9833C70.23 40.9833 71.4115 41.2597 72.4223 41.694L71.7265 43.905C70.8733 43.5892 69.6262 43.2733 68.6942 43.2733C68.0903 43.2733 67.6834 43.4839 67.6834 43.9709C67.6834 45.2475 72.9211 44.7079 72.9211 48.5904C72.9211 50.3934 71.3721 51.9069 68.8517 51.9069C67.3289 51.9069 66.0294 51.5121 64.7823 50.9988L65.7406 48.6562Z" fill="white"/>
<path d="M79.3534 40.9965C82.3726 40.9965 84.7355 43.4312 84.7355 46.4583C84.7355 49.4853 82.3726 51.9201 79.3534 51.9201C76.3341 51.9201 73.945 49.4853 73.945 46.4583C73.945 43.4312 76.3341 40.9965 79.3534 40.9965ZM79.3534 49.1168C80.7842 49.1168 81.8607 47.9586 81.8607 46.4451C81.8607 44.9316 80.7711 43.7734 79.3534 43.7734C77.9225 43.7734 76.8198 44.9316 76.8198 46.4451C76.8198 47.9586 77.9225 49.1168 79.3534 49.1168Z" fill="white"/>
<path d="M85.825 41.2202L87.2953 41.2465V39.2461C87.2953 37.0219 88.5686 35.7452 90.7871 35.7452C91.7979 35.7452 92.5724 35.89 93.4256 36.1927L92.94 38.9434C92.4149 38.7591 91.7848 38.667 91.3516 38.667C90.7871 38.667 90.367 38.9434 90.367 39.654V41.2334H94.9353L95.0797 38.1011H97.9545V41.2465L100.724 41.2202V44.0498L97.9545 44.0235V47.9981C97.9545 48.7088 98.3746 48.9852 98.9128 48.9852C99.346 48.9852 100.002 48.9062 100.501 48.7088L101 51.4594C100.147 51.7753 99.346 51.9069 98.3615 51.9069C96.143 51.9069 94.8696 50.6435 94.8696 48.4193V44.0498H90.367V51.6963H87.2822V44.0367L85.8119 44.063V41.2202H85.825Z" fill="white"/>
<path d="M35.0362 38.6933L34.7212 38.3774C34.2092 37.8642 34.2092 37.035 34.7212 36.5217L35.0362 36.2059C35.5482 35.6926 36.3752 35.6926 36.8872 36.2059L37.2022 36.5217C37.7142 37.035 37.7142 37.8642 37.2022 38.3774L36.8872 38.6933C36.3883 39.2066 35.5482 39.2066 35.0362 38.6933Z" fill="#EEA736"/>
</svg>
