<svg width="8" height="6" viewBox="0 0 8 6" fill="none" xmlns="http://www.w3.org/2000/svg">
<path d="M3.52938 4.9625L0.531882 1.53625C0.178132 1.13312 0.465632 0.5 1.00251 0.5H6.99751C7.11766 0.499897 7.23529 0.53443 7.33633 0.599463C7.43736 0.664496 7.5175 0.757273 7.56716 0.866683C7.61682 0.976093 7.63389 1.0975 7.61633 1.21636C7.59876 1.33522 7.54731 1.4465 7.46813 1.53687L4.47063 4.96187C4.41197 5.029 4.33962 5.08281 4.25845 5.11967C4.17728 5.15654 4.08916 5.17561 4.00001 5.17561C3.91085 5.17561 3.82274 5.15654 3.74156 5.11967C3.66039 5.08281 3.58804 5.029 3.52938 4.96187V4.9625Z" fill="white"/>
</svg>
